<?xml version="1.0" encoding="utf-8"?>
<!-- Generator: Adobe Illustrator 22.1.0, SVG Export Plug-In . SVG Version: 6.00 Build 0)  -->
<svg version="1.1" id="Layer_1" xmlns="http://www.w3.org/2000/svg" xmlns:xlink="http://www.w3.org/1999/xlink" x="0px" y="0px"
	 viewBox="0 0 1440 476" style="enable-background:new 0 0 1440 476;" xml:space="preserve">
<style type="text/css">
	.st0{opacity:0.55;fill:#29EF6B;}
	.st1{fill:url(#a_16_);}
	.st2{filter:url(#Adobe_OpacityMaskFilter);}
	.st3{fill:#FFFFFF;}
	.st4{mask:url(#c_1_);}
	.st5{fill:#00992B;}
	.st6{fill:none;stroke:#00CC5C;}
	.st7{filter:url(#Adobe_OpacityMaskFilter_1_);}
	.st8{mask:url(#c_2_);}
	.st9{filter:url(#Adobe_OpacityMaskFilter_2_);}
	.st10{mask:url(#c_3_);}
	.st11{fill:#00AF29;}
	.st12{fill:none;stroke:#00C95F;}
	.st13{filter:url(#Adobe_OpacityMaskFilter_3_);}
	.st14{mask:url(#c_4_);}
	.st15{filter:url(#Adobe_OpacityMaskFilter_4_);}
	.st16{mask:url(#c_5_);}
	.st17{fill:#00DD59;}
	.st18{filter:url(#Adobe_OpacityMaskFilter_5_);}
	.st19{mask:url(#c_6_);}
	.st20{filter:url(#Adobe_OpacityMaskFilter_6_);}
	.st21{mask:url(#c_7_);}
	.st22{fill:none;stroke:#29EF6B;stroke-width:2;stroke-linecap:round;stroke-linejoin:round;}
	.st23{filter:url(#Adobe_OpacityMaskFilter_7_);}
	.st24{mask:url(#c_8_);}
	.st25{filter:url(#Adobe_OpacityMaskFilter_8_);}
	.st26{mask:url(#c_9_);}
	.st27{fill:#29EF6B;}
	.st28{fill:url(#SVGID_1_);}
	.st29{fill:url(#SVGID_2_);}
	.st30{fill:url(#SVGID_3_);}
	.st31{fill:url(#SVGID_4_);}
	.st32{fill:url(#SVGID_5_);}
	.st33{fill:url(#SVGID_6_);}
	.st34{fill:#13A841;}
	.st35{fill:url(#SVGID_7_);}
	.st36{fill:#00C650;}
	.st37{fill:#E6F4F8;}
	.st38{fill:url(#SVGID_8_);}
	.st39{filter:url(#Adobe_OpacityMaskFilter_9_);}
	.st40{mask:url(#c_10_);fill:#00E85E;}
	.st41{filter:url(#Adobe_OpacityMaskFilter_10_);}
	.st42{mask:url(#c_11_);}
	.st43{filter:url(#Adobe_OpacityMaskFilter_11_);}
	.st44{mask:url(#c_12_);}
	.st45{filter:url(#Adobe_OpacityMaskFilter_12_);}
	.st46{mask:url(#g_1_);fill:#00DD59;}
	.st47{fill:none;stroke:#1AA050;}
	.st48{filter:url(#Adobe_OpacityMaskFilter_13_);}
	.st49{mask:url(#c_13_);}
	.st50{filter:url(#Adobe_OpacityMaskFilter_14_);}
	.st51{mask:url(#i_1_);fill:#00AF29;}
	.st52{filter:url(#Adobe_OpacityMaskFilter_15_);}
	.st53{mask:url(#c_14_);}
</style>
<g>
	<path class="st0" d="M0,0h1440v461c-135.3,62.6-290.2-143.3-449.6-143.3c-178.8,0-229.8,181.3-620.8,46.3
		c-146-50.4-269.2-18.1-369.6,97V0z"/>
	<g>
		
			<linearGradient id="a_16_" gradientUnits="userSpaceOnUse" x1="414.7565" y1="633.8395" x2="413.8403" y2="634.5447" gradientTransform="matrix(1440 0 0 -475.0641 -595746 301508.6875)">
			<stop  offset="0" style="stop-color:#00CE64"/>
			<stop  offset="1" style="stop-color:#16A815"/>
		</linearGradient>
		<path id="a_1_" class="st1" d="M0,363.5c214.7,175,479.8-72.1,720-72.1s467.3,223.7,720,177.3V0H0V363.5z"/>
	</g>
	<defs>
		<filter id="Adobe_OpacityMaskFilter" filterUnits="userSpaceOnUse" x="462.5" y="81" width="978.5" height="395.4">
			<feColorMatrix  type="matrix" values="1 0 0 0 0  0 1 0 0 0  0 0 1 0 0  0 0 0 1 0"/>
		</filter>
	</defs>
	<mask maskUnits="userSpaceOnUse" x="462.5" y="81" width="978.5" height="395.4" id="c_1_">
		<g class="st2">
			<path id="a_2_" class="st3" d="M0,363.5c214.7,175,479.8-72.1,720-72.1s467.3,223.7,720,177.3V0H0V363.5z"/>
		</g>
	</mask>
	<g class="st4">
		<path class="st5" d="M1175.2,401.5c-0.9-4-6.1-9.3-4.7-21.7c1.5-12.4,0.1-12.9-2.5-12.5c-3.3,0.5-5.1,8.1-2.7,22.4
			C1167.8,403.9,1176.2,405.5,1175.2,401.5L1175.2,401.5z M1322.6,311.2c-0.3-6.8-5-17-10.8-14.2c-5.2,2.5,6.5,11.7,1.3,17.9
			c-5.2,6.3-5.2,10.6,0,10.9C1318.3,326.3,1322.9,318.1,1322.6,311.2L1322.6,311.2z M770.7,412.7c236.4-43.3,236.4-89.9,296-39.5
			c22.6,19.1,39.4,28.9,52.4,29.9c5.7,7.6,15.2,9.7,15.8,9.8c-0.6-0.4-7.8-5.6-9.2-10.2c16.8-3.2,26-24.9,32.9-63.5
			c10.9-60.7,33.3-91.2,61.9-81.1c-5.3,10.2-3.3,31-3.3,31s5.4-22,12.9-26.2c1.3,0.8,2.6,1.7,3.8,2.7c34.9,26.2,58.8,34.1,65.1-23.9
			c6.3-57.9,30.2-71.7,55.7-61.9c9.2,3.6,17,4.5,23.4,2.1c13.9,11.1,16.3,33.2,16.3,33.2s-1-30.4-9-38c6.9-7,11.3-20.5,13.2-41.9
			c3.9-44.2,27.8-59.1,42.4-52.9V475H770.7L770.7,412.7L770.7,412.7z"/>
		<path class="st6" d="M463.6,384c-3.6,37.2,11.4,92,11.4,92 M498,353c-11.3,58.6,0,123,0,123 M522.3,356
			c-8.9,39.2-10.2,102.7,8.7,120 M1094,394c2.5,40.6,38,81,38,81 M1111,475c-39.3-29.2-48-105-48-105 M1179.9,279
			c-10.9,89.3,28.7,188.7,34.1,197 M1207.5,257c-16.3,56.2,0.6,184.3,21.5,219 M1245,274c-25.7,69.5-35.8,141.5-4.9,202 M1310,197
			c52.1,176.1,6.6,279,6.6,279 M1333,178c30.2,128.8,10.3,262.6,0,298 M1373.1,185c17.4,173.5-29.1,291-29.1,291 M1400,123.3
			c16.4,188.4,26.4,351.7,26.4,351.7h7.6c0,0-1-275.1-17-387"/>
	</g>
	<defs>
		<filter id="Adobe_OpacityMaskFilter_1_" filterUnits="userSpaceOnUse" x="0" y="110.9" width="418.2" height="365.6">
			<feColorMatrix  type="matrix" values="1 0 0 0 0  0 1 0 0 0  0 0 1 0 0  0 0 0 1 0"/>
		</filter>
	</defs>
	<mask maskUnits="userSpaceOnUse" x="0" y="110.9" width="418.2" height="365.6" id="c_2_">
		<g class="st7">
			<path id="a_3_" class="st3" d="M0,363.5c214.7,175,479.8-72.1,720-72.1s467.3,223.7,720,177.3V0H0V363.5z"/>
		</g>
	</mask>
	<g class="st8">
		<path class="st5" d="M188.9,295.1c-1.4,0.5-2.2,1-2.9,4.6c-2.2,13.1-11.4,25.2-14.5,28.7c-3.1,3.5-0.3,5.9,3.5,4.5
			c3.7-1.5,17.6-23.3,17.7-30.7C192.9,294.7,190.3,294.6,188.9,295.1L188.9,295.1z M239.8,375.8c-2.4,0-4.4,1.7-4.4,3.8
			c0,2.1,2,3.8,4.4,3.8c2.4,0,4.4-1.7,4.4-3.8C244.2,377.4,242.2,375.8,239.8,375.8L239.8,375.8z M312,435.7
			c-1.8-9.9,6.7-22.3,2.9-24c-5.4-2.4-10.2,15.9-10.6,25.1c-0.3,9.2,9.7,23.3,14.4,18.8C323.5,451.2,313.8,445.6,312,435.7
			L312,435.7z M296.1,394.5c47.1,20.4,27.4-57.7,92.9-38.8c65.5,18.9,0,119.4,0,119.4H0V112.9c25.6-8.1,38.2,8.3,46.9,52
			c8.7,43.7,40-1.3,64.3,16.2c24.4,17.5,6.3,82.2,46.6,100.1c31.8,14.1,46-22.7,71.3-27c0.8,13.6-1.7,30.3-1.7,30.3
			s6.3-14.8,9.8-30.5c4.6,0.5,9.6,2.1,15.1,5.3c27.5,15.6,17.8,59.4,20.6,93.8c-7.1,0.6-16.5,8.8-17,9.3c0.5-0.2,9.3-4.1,17.5-4.6
			C275.4,374.2,281,387.9,296.1,394.5L296.1,394.5z"/>
		<path class="st6" d="M102.4,177C119.6,279.4,64,476,64,476h17.9c0,0,40.9-117.5,50.1-233.2 M44,150.2C4.1,245.6,44,476,44,476
			H26.3c0,0-47.9-223,0-360 M66.6,185C76.2,308.9,54,476,54,476 M214,262C208.6,374.5,81,476,81,476"/>
		<path class="st6" d="M273,322.2C212.8,418.6,90,476,90,476c44.9-27.1,147.9-120.8,162.9-216"/>
		<path class="st6" d="M330.6,384c-3.6,37.2,11.4,92,11.4,92 M365,353c-11.3,58.6,0,123,0,123"/>
		<path class="st6" d="M389.3,356c-8.9,39.2-10.2,102.7,8.7,120"/>
	</g>
	<defs>
		<filter id="Adobe_OpacityMaskFilter_2_" filterUnits="userSpaceOnUse" x="-2.6" y="155.4" width="45.4" height="189.7">
			<feColorMatrix  type="matrix" values="1 0 0 0 0  0 1 0 0 0  0 0 1 0 0  0 0 0 1 0"/>
		</filter>
	</defs>
	<mask maskUnits="userSpaceOnUse" x="-2.6" y="155.4" width="45.4" height="189.7" id="c_3_">
		<g class="st9">
			<path id="a_4_" class="st3" d="M0,363.5c214.7,175,479.8-72.1,720-72.1s467.3,223.7,720,177.3V0H0V363.5z"/>
		</g>
	</mask>
	<g class="st10">
		<path class="st11" d="M31,155.4c0,0,17,61.7,10.2,108.7c-6.7,47-38.7,109.5-43.4,66.8c-2.9-26.6,9.4-62.1,19.9-101.3
			c3.1,3.7,7.5,1.6,7.5,1.6s-4.3-1.2-6.3-5.8C24.8,202.8,29.8,179.2,31,155.4"/>
		<path class="st12" d="M31.8,165.5c6.9,84.2-13.6,119.2-26.4,177.3"/>
	</g>
	<defs>
		<filter id="Adobe_OpacityMaskFilter_3_" filterUnits="userSpaceOnUse" x="4.4" y="225.1" width="80.9" height="168.2">
			<feColorMatrix  type="matrix" values="1 0 0 0 0  0 1 0 0 0  0 0 1 0 0  0 0 0 1 0"/>
		</filter>
	</defs>
	<mask maskUnits="userSpaceOnUse" x="4.4" y="225.1" width="80.9" height="168.2" id="c_4_">
		<g class="st13">
			<path id="a_5_" class="st3" d="M0,363.5c214.7,175,479.8-72.1,720-72.1s467.3,223.7,720,177.3V0H0V363.5z"/>
		</g>
	</mask>
	<g class="st14">
		<path class="st11" d="M39.3,309.3c-1-9.7,4-13.3,3.4-19.1c-0.5-5.7-5-6-5.9,0.9c-0.9,6.9-3.6,15.4-2,22
			C36,318,40.3,319.1,39.3,309.3 M85.3,317.9c1.5,73.2-82.1,105.8-80.9,39.4c1.2-66.4,62.5-94.4,46.1-131.9c0,0,10.5,6.1,19.9,24.3
			v0c1,6.3-3.7,18.3-2.6,25.9c0,0,3.4-16.3,6.2-18.2C79.9,271.5,84.7,291.1,85.3,317.9"/>
		<path class="st12" d="M50.5,225.4c23.5,35.7,3.9,145.3-14.2,167.3"/>
	</g>
	<defs>
		<filter id="Adobe_OpacityMaskFilter_4_" filterUnits="userSpaceOnUse" x="-19.4" y="273.6" width="45.8" height="118.9">
			<feColorMatrix  type="matrix" values="1 0 0 0 0  0 1 0 0 0  0 0 1 0 0  0 0 0 1 0"/>
		</filter>
	</defs>
	<mask maskUnits="userSpaceOnUse" x="-19.4" y="273.6" width="45.8" height="118.9" id="c_5_">
		<g class="st15">
			<path id="a_6_" class="st3" d="M0,363.5c214.7,175,479.8-72.1,720-72.1s467.3,223.7,720,177.3V0H0V363.5z"/>
		</g>
	</mask>
	<g class="st16">
		<path class="st17" d="M-10.1,388.3c-18.2-15.5-5.5-56.9,7.9-76.3C13.3,289.6,16,273.6,16,273.6s6.5,19.3,9.5,44.1
			c3,24.7-2.3,55.5-13.9,68.7C2.8,396.4-5.9,392-10.1,388.3"/>
		<path class="st12" d="M-4.8,391.4c25.1-52.9,21-115.1,21-115.1 M6.6,297.6c3.2,2.8,9.1,10,9.1,10s7.5-5.4,7.3-6"/>
		<path class="st12" d="M-3.7,314.2c4.9,4.7,16.4,18.9,16.4,18.9s11.1-7.1,13.4-10 M-13.3,334.2c5.6,5.5,20.7,23.5,20.7,23.5
			s14.1-7.7,18-10.4 M18.6,374.8c-4.9,3-18.9,6.3-18.9,6.3s-13.8-18-18.9-21.3"/>
	</g>
	<defs>
		<filter id="Adobe_OpacityMaskFilter_5_" filterUnits="userSpaceOnUse" x="34.3" y="298.3" width="93.7" height="121.1">
			<feColorMatrix  type="matrix" values="1 0 0 0 0  0 1 0 0 0  0 0 1 0 0  0 0 0 1 0"/>
		</filter>
	</defs>
	<mask maskUnits="userSpaceOnUse" x="34.3" y="298.3" width="93.7" height="121.1" id="c_6_">
		<g class="st18">
			<path id="a_7_" class="st3" d="M0,363.5c214.7,175,479.8-72.1,720-72.1s467.3,223.7,720,177.3V0H0V363.5z"/>
		</g>
	</mask>
	<g class="st19">
		<path class="st17" d="M78.6,350c-0.4-0.3-6-5.5-6-8c27.5-27.1,55.5-43.6,55.5-43.6c-3,72.8-45.3,112.8-74.5,120.2
			c-29.2,7.4-20.6-28.7-4-50.5c6.5-8.5,13.5-16.4,20.7-23.7C72.6,347.6,78.2,349.8,78.6,350"/>
		<path class="st12" d="M37.9,416.4C80.1,386.1,126.5,301,126.5,301 M108.3,319.7c0.8,3.9,1.9,8.8,1.9,8.8s7.7-1,9.8-1.4"/>
		<path class="st12" d="M90.1,339.1c0.7,3.3,3.6,14.5,3.6,14.5s11.4-0.2,15.8-1.8 M68.4,361c0.6,7.5,3.6,21.6,3.6,21.6
			s14.5,0,20.8-0.5 M49.7,379.5c-0.6,7.6,2.3,25,2.3,25s14.3,0,21.4-2.8"/>
	</g>
	<defs>
		<filter id="Adobe_OpacityMaskFilter_6_" filterUnits="userSpaceOnUse" x="1010.9" y="204" width="330" height="311.2">
			<feColorMatrix  type="matrix" values="1 0 0 0 0  0 1 0 0 0  0 0 1 0 0  0 0 0 1 0"/>
		</filter>
	</defs>
	<mask maskUnits="userSpaceOnUse" x="1010.9" y="204" width="330" height="311.2" id="c_7_">
		<g class="st20">
			<path id="a_8_" class="st3" d="M0,363.5c214.7,175,479.8-72.1,720-72.1s467.3,223.7,720,177.3V0H0V363.5z"/>
		</g>
	</mask>
	<g class="st21">
		<path class="st22" d="M1248.3,273.3L1240,205l-8.3,68.4H1248.3z M1248.3,514.2h-16.6V273.3h16.6V514.2z"/>
		<path class="st22" d="M1248.3,503.3l-16.6-16.5l16.6-17.7l-16.6-18.3l16.6-15.7l-16.6-16.1l16.6-15.5l-16.6-13.9l16.6-14.9
			l-16.6-14.1l16.6-14.9l-16.6-13.1l16.6-14.7l-16.6-13.5l16.6-14.7l-16.6-16.6 M1030.5,259.2l-18.6,14.1h328v-14.1H1030.5z
			 M1246.2,256.1l-11.3-8.5l9.4-6.9l-7.8-6.7l6-7.8l-4.6-4.4"/>
		<path class="st22" d="M1339.9,273.3l-13.6-14.1l-13.9,14.1l-14.5-14.1l-13.6,14.1l-13.7-14.1l-14.3,14.1l-13.7-14.1l-14.5,14.1
			l-13.7-14.1l-15.3,14.1l-13.9-14.1l-14.7,14.1l-13.9-14.1l-13.9,14.1l-13.6-14.1l-13,14.1l-14.3-14.1l-13.7,14.1l-13.7-14.1
			l-13.2,14.1l-13.7-14.1l-14.9,14.1 M1326.3,259.2L1240,205l-83.7,54.3 M1101.6,259.2L1240,205 M1019.3,273.3
			c18.7,18.1,58.3,41.8,97,0.1"/>
		<path class="st22" d="M1151.3,403.6h-75.9l40.8-130.2L1151.3,403.6z"/>
	</g>
	<defs>
		<filter id="Adobe_OpacityMaskFilter_7_" filterUnits="userSpaceOnUse" x="202.1" y="138" width="330" height="311.2">
			<feColorMatrix  type="matrix" values="1 0 0 0 0  0 1 0 0 0  0 0 1 0 0  0 0 0 1 0"/>
		</filter>
	</defs>
	<mask maskUnits="userSpaceOnUse" x="202.1" y="138" width="330" height="311.2" id="c_8_">
		<g class="st23">
			<path id="a_9_" class="st3" d="M0,363.5c214.7,175,479.8-72.1,720-72.1s467.3,223.7,720,177.3V0H0V363.5z"/>
		</g>
	</mask>
	<g class="st24">
		<path class="st22" d="M294.7,207.3L303,139l8.3,68.4L294.7,207.3z M294.7,448.2h16.6V207.3h-16.6V448.2z"/>
		<path class="st22" d="M294.7,437.3l16.6-16.5l-16.6-17.7l16.6-18.3l-16.6-15.7l16.6-16.1l-16.6-15.5l16.6-13.9l-16.6-14.9
			l16.6-14.1l-16.6-14.9l16.6-13.1l-16.6-14.7l16.6-13.5l-16.6-14.7l16.6-16.6 M512.5,193.2l18.6,14.1h-328v-14.1H512.5z
			 M296.8,190.1l11.3-8.5l-9.4-6.9l7.8-6.7l-6-7.8l4.6-4.4"/>
		<path class="st22" d="M203.1,207.3l13.6-14.1l13.9,14.1l14.5-14.1l13.6,14.1l13.7-14.1l14.3,14.1l13.7-14.1l14.5,14.1l13.7-14.1
			l15.3,14.1l13.9-14.1l14.7,14.1l13.9-14.1l13.9,14.1l13.5-14.1l13,14.1l14.3-14.1l13.7,14.1l13.7-14.1l13.2,14.1l13.7-14.1
			l14.9,14.1 M216.7,193.2L303,139l83.7,54.3 M441.4,193.2L303,139 M523.7,207.3c-18.7,18.1-58.3,41.8-97,0.1"/>
		<path class="st22" d="M391.7,279h75.9l-40.8-71.7L391.7,279z"/>
	</g>
	<defs>
		<filter id="Adobe_OpacityMaskFilter_8_" filterUnits="userSpaceOnUse" x="362" y="276" width="128.3" height="100.9">
			<feColorMatrix  type="matrix" values="1 0 0 0 0  0 1 0 0 0  0 0 1 0 0  0 0 0 1 0"/>
		</filter>
	</defs>
	<mask maskUnits="userSpaceOnUse" x="362" y="276" width="128.3" height="100.9" id="c_9_">
		<g class="st25">
			<path id="a_10_" class="st3" d="M0,363.5c214.7,175,479.8-72.1,720-72.1s467.3,223.7,720,177.3V0H0V363.5z"/>
		</g>
	</mask>
	<g class="st26">
		<path class="st27" d="M362,367.1h128.3V276H362V367.1z"/>
		
			<linearGradient id="SVGID_1_" gradientUnits="userSpaceOnUse" x1="408.9888" y1="632.4679" x2="409.7889" y2="631.574" gradientTransform="matrix(83.031 0 0 -67.11 -33580.2578 42753.8789)">
			<stop  offset="0" style="stop-color:#00CE64"/>
			<stop  offset="1" style="stop-color:#16A815"/>
		</linearGradient>
		<path class="st28" d="M380.6,363.1h83L422.1,296L380.6,363.1"/>
		
			<linearGradient id="SVGID_2_" gradientUnits="userSpaceOnUse" x1="405.888" y1="631.1274" x2="406.888" y2="630.1274" gradientTransform="matrix(51.834 0 0 -41.893 -20610.2734 26766.3008)">
			<stop  offset="0" style="stop-color:#00CE64"/>
			<stop  offset="1" style="stop-color:#16A815"/>
		</linearGradient>
		<path class="st29" d="M435,363.1h51.8l-25.9-41.9L435,363.1"/>
		<linearGradient id="SVGID_3_" gradientUnits="userSpaceOnUse" x1="438.4895" y1="304.625" x2="457.5455" y2="304.625">
			<stop  offset="0" style="stop-color:#00BF1C"/>
			<stop  offset="1" style="stop-color:#21D758"/>
		</linearGradient>
		<path class="st30" d="M457.5,304.5c0.1,5.3-4.2,9.6-9.4,9.6s-9.6-4.2-9.6-9.4c0-0.1,0-0.1,0-0.2c0.1-5.3,4.4-9.5,9.6-9.4
			C453.3,295.2,457.5,299.3,457.5,304.5"/>
		
			<linearGradient id="SVGID_4_" gradientUnits="userSpaceOnUse" x1="379.2679" y1="608.4886" x2="380.068" y2="607.5947" gradientTransform="matrix(11.916 0 0 -5.958 -4154.2241 3983.249)">
			<stop  offset="0" style="stop-color:#00CE64"/>
			<stop  offset="1" style="stop-color:#16A815"/>
		</linearGradient>
		<path class="st31" d="M376.9,362.9H365c0-3.3,2.7-6,6-6C374.2,356.9,376.9,359.6,376.9,362.9"/>
		
			<linearGradient id="SVGID_5_" gradientUnits="userSpaceOnUse" x1="365.3625" y1="597.942" x2="366.1625" y2="597.048" gradientTransform="matrix(8.51 0 0 -4.255 -2735.6687 2903.5476)">
			<stop  offset="0" style="stop-color:#00CE64"/>
			<stop  offset="1" style="stop-color:#16A815"/>
		</linearGradient>
		<path class="st32" d="M382,362.9h-8.5c0-2.3,1.9-4.3,4.3-4.3C380.1,358.6,382,360.5,382,362.9L382,362.9"/>
		
			<linearGradient id="SVGID_6_" gradientUnits="userSpaceOnUse" x1="348.5452" y1="625.8016" x2="349.3452" y2="624.9076" gradientTransform="matrix(6.314 0 0 -17.196 -1821.1731 11103.4834)">
			<stop  offset="0" style="stop-color:#00CE64"/>
			<stop  offset="1" style="stop-color:#16A815"/>
		</linearGradient>
		<path class="st33" d="M382.4,358.2h-0.9c-1.5,0-2.7-1.2-2.7-2.7l0,0v-11.8c0-1.5,1.2-2.7,2.7-2.7h0.9c1.5,0,2.7,1.2,2.7,2.7l0,0
			v11.8C385.1,357,383.9,358.2,382.4,358.2"/>
		<path class="st34" d="M382.3,362.5v-4.3c0-0.2-0.1-0.3-0.3-0.3c-0.2,0-0.3,0.1-0.3,0.3v4.3c0,0.2,0.1,0.3,0.3,0.3
			C382.2,362.8,382.3,362.7,382.3,362.5L382.3,362.5 M386,362.5V360c0-0.2-0.2-0.3-0.3-0.3c-0.2,0-0.3,0.1-0.3,0.3v2.5
			c0,0.2,0.1,0.3,0.3,0.3C385.8,362.8,386,362.7,386,362.5"/>
		
			<linearGradient id="SVGID_7_" gradientUnits="userSpaceOnUse" x1="312.6784" y1="621.7679" x2="313.6784" y2="620.7679" gradientTransform="matrix(4.086 0 0 -11.8651 -894.054 7725.3267)">
			<stop  offset="0" style="stop-color:#00CE64"/>
			<stop  offset="1" style="stop-color:#16A815"/>
		</linearGradient>
		<path class="st35" d="M385.6,348c-1.1,0-2,0.9-2,2c0,0,0,0,0,0v7.8c0,1.1,0.9,2,2,2c1.1,0,2-0.9,2-2c0,0,0,0,0,0V350
			C387.6,348.9,386.7,348,385.6,348"/>
		<path class="st36" d="M412.9,321.8h-23c0,0-0.1-1.5,1-2.2c1-0.6,1.9,0,1.9,0s0.4-4,5.3-4.8c4.7-0.8,6.4,2.8,6.4,2.8
			s1.3-0.9,3.3-0.3c2,0.6,2.4,2.3,2.4,2.3s1-0.5,2.1,0.4C413.1,320.7,412.9,321.8,412.9,321.8"/>
		<path class="st37" d="M481.3,373.1V372h1.1v-1.2h-2.3v2.3H481.3 M483.9,372h1.1v1.1h1.2v-2.3h-2.3V372 M485,374.6v1.1l-1.1,0v1.2
			h2.3v-2.3L485,374.6 M482.5,375.7h-1.1v-1.1h-1.2v2.3h2.3V375.7"/>
		<linearGradient id="SVGID_8_" gradientUnits="userSpaceOnUse" x1="362.362" y1="362.787" x2="433.75" y2="362.787">
			<stop  offset="0" style="stop-color:#00CE64"/>
			<stop  offset="1" style="stop-color:#16A815"/>
		</linearGradient>
		<path class="st38" d="M362.4,363.4h71.4v-1.2h-71.4V363.4z"/>
	</g>
	<defs>
		<filter id="Adobe_OpacityMaskFilter_9_" filterUnits="userSpaceOnUse" x="1142" y="155" width="88.6" height="27.3">
			<feColorMatrix  type="matrix" values="1 0 0 0 0  0 1 0 0 0  0 0 1 0 0  0 0 0 1 0"/>
		</filter>
	</defs>
	<mask maskUnits="userSpaceOnUse" x="1142" y="155" width="88.6" height="27.3" id="c_10_">
		<g class="st39">
			<path id="a_11_" class="st3" d="M0,363.5c214.7,175,479.8-72.1,720-72.1s467.3,223.7,720,177.3V0H0V363.5z"/>
		</g>
	</mask>
	<path class="st40" d="M1142.1,182.3h88.6c0,0,0.6-5.9-3.7-8.4c-3.8-2.2-7.2,0-7.2,0s-1.6-15.3-20.5-18.5
		c-17.9-3-24.7,10.9-24.7,10.9s-5.1-3.5-12.6-1.1c-7.8,2.4-9.1,9-9.1,9s-3.8-1.8-8,1.4C1141.3,178.2,1142.1,182.3,1142.1,182.3"/>
	<defs>
		<filter id="Adobe_OpacityMaskFilter_10_" filterUnits="userSpaceOnUse" x="1393.6" y="236.1" width="60.3" height="174.1">
			<feColorMatrix  type="matrix" values="1 0 0 0 0  0 1 0 0 0  0 0 1 0 0  0 0 0 1 0"/>
		</filter>
	</defs>
	<mask maskUnits="userSpaceOnUse" x="1393.6" y="236.1" width="60.3" height="174.1" id="c_11_">
		<g class="st41">
			<path id="a_12_" class="st3" d="M0,363.5c214.7,175,479.8-72.1,720-72.1s467.3,223.7,720,177.3V0H0V363.5z"/>
		</g>
	</mask>
	<g class="st42">
		<path class="st11" d="M1398,236.1c46.3,48.6,56.3,126.7,55.9,145.2c-0.8,37.8-37,32.3-45.1,18.6c-10.7-17.9-14.5-60.1-15.1-93.6
			c4,0.6,12.3,4.3,12.3,4.3s-6.1-6.6-12.4-9.7c0-2.4,0-4.7,0-7.1C1393.8,259.3,1398,236.1,1398,236.1"/>
		<path class="st12" d="M1434.6,409.9c2.3-84.8-36.4-170.9-36.4-170.9 M1401.3,274.8c4.6,1.6,12.4,6.4,12.4,6.4s3.1-7.7,3.7-9"/>
		<path class="st12" d="M1425.7,291.9c-2.2,2.5-5.8,10.1-5.8,10.1s-11.2-4.7-16.2-6.1 M1405.7,329.7c7.7,1.3,22.2,9.6,22.8,9.9
			c0.6,0.3,6.9-15.6,7.6-16.8 M1409.8,365.1c11.4,2.4,23.7,10.5,23.7,10.5s9.9-15.3,11-16.5"/>
	</g>
	<defs>
		<filter id="Adobe_OpacityMaskFilter_11_" filterUnits="userSpaceOnUse" x="1392.8" y="313.6" width="61.6" height="177.5">
			<feColorMatrix  type="matrix" values="1 0 0 0 0  0 1 0 0 0  0 0 1 0 0  0 0 0 1 0"/>
		</filter>
	</defs>
	<mask maskUnits="userSpaceOnUse" x="1392.8" y="313.6" width="61.6" height="177.5" id="c_12_">
		<g class="st43">
			<path id="a_13_" class="st3" d="M0,363.5c214.7,175,479.8-72.1,720-72.1s467.3,223.7,720,177.3V0H0V363.5z"/>
		</g>
	</mask>
	<g class="st44">
		<g transform="rotate(-4 5192.993 -19702.322)">
			<defs>
				<filter id="Adobe_OpacityMaskFilter_12_" filterUnits="userSpaceOnUse" x="-6.6" y="4" width="73.9" height="172.8">
					<feColorMatrix  type="matrix" values="1 0 0 0 0  0 1 0 0 0  0 0 1 0 0  0 0 0 1 0"/>
				</filter>
			</defs>
			<mask maskUnits="userSpaceOnUse" x="-6.6" y="4" width="73.9" height="172.8" id="g_1_">
				<g class="st45">
					<path id="f_1_" class="st3" d="M0,0.5l57.6,0l0,179.4l-57.6,0L0,0.5z"/>
				</g>
			</mask>
			<path class="st46" d="M16,0.5c-30.1,92.2-11.6,145.5,5,169c16.5,23.6,39.4,5.1,36.3-37.6C52.7,67.3,16,0.5,16,0.5"/>
		</g>
		<path class="st47" d="M1403.3,317.9c9.2,102.9,34.3,172.9,34.3,172.9"/>
	</g>
	<defs>
		<filter id="Adobe_OpacityMaskFilter_13_" filterUnits="userSpaceOnUse" x="1298" y="315.7" width="113.3" height="165.7">
			<feColorMatrix  type="matrix" values="1 0 0 0 0  0 1 0 0 0  0 0 1 0 0  0 0 0 1 0"/>
		</filter>
	</defs>
	<mask maskUnits="userSpaceOnUse" x="1298" y="315.7" width="113.3" height="165.7" id="c_13_">
		<g class="st48">
			<path id="a_14_" class="st3" d="M0,363.5c214.7,175,479.8-72.1,720-72.1s467.3,223.7,720,177.3V0H0V363.5z"/>
		</g>
	</mask>
	<g class="st49">
		<g transform="translate(1298 315.179)">
			<defs>
				<filter id="Adobe_OpacityMaskFilter_14_" filterUnits="userSpaceOnUse" x="0" y="0.6" width="113.3" height="165.7">
					<feColorMatrix  type="matrix" values="1 0 0 0 0  0 1 0 0 0  0 0 1 0 0  0 0 0 1 0"/>
				</filter>
			</defs>
			<mask maskUnits="userSpaceOnUse" x="0" y="0.6" width="113.3" height="165.7" id="i_1_">
				<g class="st50">
					<path id="h_1_" class="st3" d="M0,0.6h113.3v165.7H0V0.6z"/>
				</g>
			</mask>
			<path class="st51" d="M95.5,165.5c-21.5,6.2-85.6-31.6-85-48.3c0.6-16.7,19.2-9.5,19.2-9.5S-5.8,65.8,0.8,50.1s36.3,7.6,36.3,7.6
				S15.1,12.9,29.5,2.6C44-7.7,60.9,24.3,63.4,32.1c2.5,7.8,5.2,21.3,5.2,21.3s3.5-26.2,18-25.4c14.5,0.8,30.6,70.2,26,105.7
				C108,169.3,95.5,165.5,95.5,165.5"/>
		</g>
		<path class="st12" d="M1327.5,317.8c42.7,72.9,61.8,163.6,61.8,163.6 M1298.8,365.3c29.5,44.4,66.7,35.3,66.7,35.3
			s24-13.2,21.4-56.7"/>
		<path class="st12" d="M1309.4,427.5c33.5,28.3,70.7,18.1,70.7,18.1s22.4-7.3,28.4-43.4"/>
	</g>
	<defs>
		<filter id="Adobe_OpacityMaskFilter_15_" filterUnits="userSpaceOnUse" x="1264.1" y="336.5" width="85.8" height="149.8">
			<feColorMatrix  type="matrix" values="1 0 0 0 0  0 1 0 0 0  0 0 1 0 0  0 0 0 1 0"/>
		</filter>
	</defs>
	<mask maskUnits="userSpaceOnUse" x="1264.1" y="336.5" width="85.8" height="149.8" id="c_14_">
		<g class="st52">
			<path id="a_15_" class="st3" d="M0,363.5c214.7,175,479.8-72.1,720-72.1s467.3,223.7,720,177.3V0H0V363.5z"/>
		</g>
	</mask>
	<g class="st53">
		<path class="st17" d="M1264.1,336.5c52.6,32.9,80.3,100.6,84.5,117.4c8.4,34.1-24.7,37.6-35.2,27.3c-13.7-13.6-27.3-50.6-36-80.5
			c3.7-0.4,11.9,1,11.9,1s-7-4.5-13.2-5.8c-0.6-2.1-1.2-4.3-1.7-6.4C1266.1,358.3,1264.1,336.5,1264.1,336.5"/>
		<path class="st12" d="M1338.5,484.1c-18.6-76.7-73.5-145-73.5-145 M1276.4,370.4c4.4,0.4,12.5,2.9,12.5,2.9s0.9-7.6,1.1-9"/>
		<path class="st12" d="M1302.1,380.1c-1.3,2.7-2.7,10.5-2.7,10.5s-11-1.6-15.7-1.7 M1293.7,418.7c7.1-0.6,21.9,3.4,22.5,3.6
			c0.6,0.1,2.3-15.6,2.6-16.9 M1305.8,449.5c10.6-0.5,23.4,3.9,23.4,3.9s5-16,5.7-17.4"/>
	</g>
</g>
</svg>
